FFmpeg version SVN-r25716, Copyright (c) 2000-2010 the FFmpeg developers  built on Nov 10 2010 12:23:18 with gcc 4.1.2 20080704 (Red Hat 4.1.2-48)  configuration: --enable-libmp3lame --enable-shared --disable-mmx --arch=x86_64  libavutil     50.33. 0 / 50.33. 0  libavcore      0.12. 1 /  0.12. 1  libavcodec    52.94. 4 / 52.94. 4  libavformat   52.84. 0 / 52.84. 0  libavdevice   52. 2. 2 / 52. 2. 2  libavfilter    1.59. 0 /  1.59. 0  libswscale     0.12. 0 /  0.12. 0Seems stream 0 codec frame rate differs from container frame rate: 31.55 (31586/1001) -> 15.78 (11250/713)Input #0, mov,mp4,m4a,3gp,3g2,mj2, from '/RAID10/data/converted_video_files/7762.mov':  Duration: 00:00:08.99, start: 0.000000, bitrate: 3153 kb/s    Stream #0.0(eng): Video: h264, yuv420p, 696x520 [PAR 1:1 DAR 87:65], 3144 kb/s, 15.78 fps, 15.78 tbr, 90k tbn, 31.55 tbc    Stream #0.1(eng): Audio: aac, 48000 Hz, stereo, s16, 3 kb/s[buffer @ 0x19ef0ac0] w:696 h:520 pixfmt:yuv420pOutput #0, flv, to '/RAID10/data/converted_video_files/7762.flv':  Metadata:    encoder         : Lavf52.84.0    Stream #0.0(eng): Video: flv, yuv420p, 696x520 [PAR 1:1 DAR 87:65], q=2-31, 600 kb/s, 1k tbn, 24 tbc    Stream #0.1(eng): Audio: libmp3lame, 22050 Hz, stereo, s16, 96 kb/sStream mapping:  Stream #0.0 -> #0.0  Stream #0.1 -> #0.1Press [q] to stop encodingframe=   25 fps=  0 q=6.5 size=     233kB time=1.38 bitrate=1379.5kbits/s    frame=   51 fps= 49 q=9.6 size=     385kB time=3.08 bitrate=1022.8kbits/s    frame=   78 fps= 50 q=11.3 size=     516kB time=4.81 bitrate= 879.2kbits/s    frame=  104 fps= 50 q=10.7 size=     642kB time=6.45 bitrate= 815.3kbits/s    frame=  128 fps= 50 q=10.2 size=     758kB time=7.97 bitrate= 778.9kbits/s    frame=  142 fps= 49 q=9.3 Lsize=     832kB time=8.96 bitrate= 760.8kbits/s    video:719kB audio:105kB global headers:0kB muxing overhead 0.959258%